<svg xmlns="http://www.w3.org/2000/svg" width="150" viewBox="0 0 160 72">
	<path fill="#0066dc" d="M101.2,49.3v6.4c0,1.1,1.2,1.8,2.1,1.2l5.6-3.4c0.9-0.6,0.9-1.9-0.1-2.4l-5.6-3C102.3,47.6,101.2,48.3,101.2,49.3z"/>
	<path fill="#0066dc" d="M0.3,2.6l11.8-2.4v20h0.1c2-3.5,5.9-5,10.1-5c3.8,0,8.2,1.3,10.7,4.3c3.3,3.9,3.7,7.4,3.7,14.4v21.9H24.9V34.4c0-1.9,0-8.2-6.3-8.2c-6.6,0-6.6,5.9-6.6,7.8v21.8H0.3V2.6z"/>
	<path fill="#0066dc" d="M44.2,2.6L56,0.2v55.6H44.2V2.6z"/>
	<path fill="#0066dc" d="M81.8,27.6c0-2.7-2-3.8-3.9-3.8c-2.2,0-3.6,1.8-3.3,3.6c0.4,2.3,2.7,3.2,5.8,4.1c6.7,1.8,13.1,4.7,13.1,12.3c0,8.3-6.6,13.4-15.3,13.4c-5.9,0-15-3-15-13h10.7c0,2.6,2,4.6,4.5,4.6c2.4,0,4.3-1.5,4.1-4c-0.3-3.2-2.9-3.4-10.4-6.3c-5.1-1.6-8.7-5-8.7-10.3c0-7.8,6.4-13,14.6-13c5.2,0,14.5,2.7,14.5,12.4H81.8z"/>
	<path fill="#0066dc" d="M118.7,17.3V58c0,5.9-0.4,8.4-5.3,8.4c-1.4,0-2.9-0.4-3.8-1V71c1.5,0.6,3,0.9,5.3,0.9c6.6,0,10.3-4.2,10.3-13V17.3H118.7z"/>
	<path fill="#0066dc" d="M126,4.4c0,2.3-1.8,4.1-4.1,4.1c-2.3,0-4.1-1.8-4.1-4.1s1.8-4.1,4.1-4.1c1.1,0,2.2,0.5,2.9,1.2C125.6,2.2,126,3.2,126,4.4z"/>
	<path fill="#0066dc" d="M147.7,34.1c-5.8-2.1-7-3.4-7-6.2c0-3,1.9-5,6.5-5c2.9,0,6.6,0.7,10.1,1.9v-6c-3.2-1.1-7-1.7-10.6-1.7c-7.8,0-12.2,4.6-12.2,11.3c0,5.7,2.9,8.4,10.7,11.2c6.2,2.2,8.3,3.6,8.3,6.6c0,3.3-2.8,5.2-7.7,5.2c-3.6,0-7.4-1.2-11.2-3.4v6.5c3.6,1.7,7.7,2.8,11.8,2.8c8.1,0,13.4-4.6,13.4-11.5C159.7,39.6,155.5,36.8,147.7,34.1z"/>
</svg>
